<svg xmlns="http://www.w3.org/2000/svg" width="163.508" height="16.988" viewBox="0 0 163.508 16"><g transform="translate(-375.712 196.93)"><path d="M480.31,53.058V52.8a1.717,1.717,0,0,0,1.6-1.755,1.742,1.742,0,0,0-1.6-1.779v-.232a1.946,1.946,0,0,1,1.91,1.982,2,2,0,0,1-1.91,2.045" transform="translate(57 -233)" fill="#242424" fill-rule="evenodd"/><path d="M480.31,51.22c.182.051.253.183.307.415a1.279,1.279,0,0,0,.185.564h.281a3.6,3.6,0,0,1-.153-.564c-.057-.336-.179-.515-.387-.544v-.024a.519.519,0,0,0,.441-.54.665.665,0,0,0-.182-.472,1.274,1.274,0,0,0-.492-.153v.239c.284.079.387.229.387.407a.439.439,0,0,1-.387.415Z" transform="translate(57 -233)" fill="#242424" fill-rule="evenodd"/><path d="M480.31,49.031v.232h-.074a1.694,1.694,0,0,0-1.629,1.236v-.7a2.1,2.1,0,0,1,1.629-.771Z" transform="translate(57 -233)" fill="#242424" fill-rule="evenodd"/><path d="M480.31,49.9h-.173a4.407,4.407,0,0,0-.6.053V52.2h.284V51.195h.29c.071,0,.154.025.2.025v-.253c-.048,0-.131.024-.2.024h-.29v-.85c.077,0,.162-.028.262-.028s.182.028.23.028Z" transform="translate(57 -233)" fill="#242424" fill-rule="evenodd"/><path d="M480.31,52.8v.261h-.074a2.054,2.054,0,0,1-1.629-.8v-.7a1.712,1.712,0,0,0,1.629,1.24Z" transform="translate(57 -233)" fill="#242424" fill-rule="evenodd"/><path d="M478.608,49.8a2.031,2.031,0,0,0,0,2.453v-.7a1.994,1.994,0,0,1-.08-.543,1.8,1.8,0,0,1,.08-.514Z" transform="translate(57 -233)" fill="#242424" fill-rule="evenodd"/><path d="M384.32,39.791h-2.662L379.185,52.61h-6.841l3.1-16.026h9.5c9.2,0,12.419,3.618,11.547,8.032l-1.548,7.994H388.09l1.573-7.994c.516-2.659-.954-4.825-5.343-4.825" transform="translate(57 -233)" fill="#242424" fill-rule="evenodd"/><path d="M480.31,36.07H470.3c-1.347,0-2.945.31-3.227,1.834l-.356,1.859h10.243a5.711,5.711,0,0,0,1.651-.236,2.149,2.149,0,0,0,1.572-1.593l.13-.672.234-1.192Zm-1.782,4.647a6.689,6.689,0,0,1-1.776.23h-5.861a3.849,3.849,0,0,1,.955,3.67c-.541,2.68-2.788,4.9-7.023,4.9-4.261,0-5.652-2.22-5.139-4.9.492-2.456,2.355-4.464,5.836-4.854v-.025l.364-1.834a3.137,3.137,0,0,1,.88-1.732c-8.782.179-13.217,3.9-14.125,8.445-.9,4.646,2.3,8.441,11.493,8.441a22.091,22.091,0,0,0,8.746-1.576,9.77,9.77,0,0,0,5.73-5.833,8.265,8.265,0,0,0,.287-1.032,6.342,6.342,0,0,0-.287-3.7c-.026-.075-.052-.128-.08-.2" transform="translate(57 -233)" fill="#242424" fill-rule="evenodd"/><path d="M425.927,52.611l3.1-16.026h6.84l-1.24,6.4h8.938l1.236-6.4h6.812l-3.1,16.026H441.67l1.237-6.393H434l-1.265,6.393Z" transform="translate(57 -233)" fill="#242424" fill-rule="evenodd"/><path d="M411.264,49.412h4.421l1.258-6.426h6.823l-1.859,9.624H410.625c-9.2,0-12.416-3.585-11.537-7.994.851-4.414,5.468-8.032,14.635-8.032h11.308l-.626,3.207H413.126c-4.389,0-6.5,2.163-7.018,4.825-.494,2.63.742,4.8,5.156,4.8" transform="translate(57 -233)" fill="#242424" fill-rule="evenodd"/><path d="M361.949,36.584a25.707,25.707,0,0,0-2.9.158c-7.272.673-10.989,3.946-11.765,7.874l-1.55,7.994h6.841l.929-4.821h8.926l-.924,4.821h6.814l3.121-16.026Zm1.1,8.032h-8.931a5.87,5.87,0,0,1,4.927-4.6,10.372,10.372,0,0,1,2.277-.229h2.656Z" transform="translate(57 -233)" fill="#242424" fill-rule="evenodd"/><path d="M337.586,36.585H321.835l-3.123,16.026H334.48c5.8,0,8.9-1.208,9.6-4.8a2.824,2.824,0,0,0-2.81-3.2,4.518,4.518,0,0,0,4.053-3.2c.643-3.355-1.884-4.829-7.737-4.829m-.522,11.205c-.208,1.09-1.343,1.623-2.942,1.623h-7.951l.618-3.195h7.98c1.594,0,2.5.515,2.295,1.572m1.236-6.407c-.21,1.063-1.315,1.6-2.945,1.6H327.41l.641-3.194H336c1.6,0,2.5.507,2.3,1.591" transform="translate(57 -233)" fill="#000000" fill-rule="evenodd"/></g></svg>